<!-- @generated by scripts/textures/generate.mts. DO NOT EDIT. Source: paper variant 4, seed 20260912. -->
<svg xmlns="http://www.w3.org/2000/svg" width="200" height="100" viewBox="0 0 200 100">
	<polygon points="0,0 93,0 46,51" fill="#dcd8ca"/>
	<polygon points="0,0 0,45 46,51" fill="#e3dfd1"/>
	<polygon points="93,0 200,0 142,53" fill="#e8e4d6"/>
	<polygon points="93,0 46,51 142,53" fill="#e8e4d6"/>
	<polygon points="200,0 200,45 142,53" fill="#e3dfd1"/>
	<polygon points="0,45 46,51 93,100" fill="#dcd8ca"/>
	<polygon points="0,45 0,100 93,100" fill="#dcd8ca"/>
	<polygon points="46,51 142,53 93,100" fill="#e3dfd1"/>
	<polygon points="142,53 200,45 200,100" fill="#dcd8ca"/>
	<polygon points="142,53 93,100 200,100" fill="#e8e4d6"/>
</svg>
