<!-- @generated by scripts/textures/generate.mts. DO NOT EDIT. Source: paper variant 3, seed 20260912. -->
<svg xmlns="http://www.w3.org/2000/svg" width="200" height="100" viewBox="0 0 200 100">
	<polygon points="0,0 91,0 63,32" fill="#dcd8ca"/>
	<polygon points="0,0 0,48 63,32" fill="#e8e4d6"/>
	<polygon points="91,0 200,0 138,40" fill="#e8e4d6"/>
	<polygon points="91,0 63,32 138,40" fill="#e3dfd1"/>
	<polygon points="200,0 200,48 138,40" fill="#e8e4d6"/>
	<polygon points="0,48 63,32 91,100" fill="#e3dfd1"/>
	<polygon points="0,48 0,100 91,100" fill="#dcd8ca"/>
	<polygon points="63,32 138,40 91,100" fill="#dcd8ca"/>
	<polygon points="138,40 200,48 200,100" fill="#dcd8ca"/>
	<polygon points="138,40 91,100 200,100" fill="#e8e4d6"/>
</svg>
