<!-- @generated by scripts/textures/generate.mts. DO NOT EDIT. Source: paper variant 3, seed 20260912. -->
<svg xmlns="http://www.w3.org/2000/svg" width="200" height="100" viewBox="0 0 200 100">
	<polygon points="0,0 91,0 63,32" fill="#edf1f5"/>
	<polygon points="0,0 0,48 63,32" fill="#f7f9fb"/>
	<polygon points="91,0 200,0 138,40" fill="#f7f9fb"/>
	<polygon points="91,0 63,32 138,40" fill="#f4f6f9"/>
	<polygon points="200,0 200,48 138,40" fill="#f7f9fb"/>
	<polygon points="0,48 63,32 91,100" fill="#f4f6f9"/>
	<polygon points="0,48 0,100 91,100" fill="#edf1f5"/>
	<polygon points="63,32 138,40 91,100" fill="#edf1f5"/>
	<polygon points="138,40 200,48 200,100" fill="#edf1f5"/>
	<polygon points="138,40 91,100 200,100" fill="#f7f9fb"/>
</svg>
