<?xml version="1.0" encoding="UTF-8" standalone="no"?>
<!-- Created with Inkscape (http://www.inkscape.org/) -->

<svg
   width="50.380016"
   height="50.936672"
   viewBox="0 0 13.329712 13.476995"
   version="1.1"
   id="svg8"
   inkscape:version="1.2 (dc2aedaf03, 2022-05-15)"
   sodipodi:docname="color-scheme.svg"
   xml:space="preserve"
   xmlns:inkscape="http://www.inkscape.org/namespaces/inkscape"
   xmlns:sodipodi="http://sodipodi.sourceforge.net/DTD/sodipodi-0.dtd"
   xmlns="http://www.w3.org/2000/svg"
   xmlns:svg="http://www.w3.org/2000/svg"
   xmlns:rdf="http://www.w3.org/1999/02/22-rdf-syntax-ns#"
   xmlns:cc="http://creativecommons.org/ns#"
   xmlns:dc="http://purl.org/dc/elements/1.1/"><defs
     id="defs2" /><sodipodi:namedview
     id="base"
     pagecolor="#8c8c8c"
     bordercolor="#00ff12"
     borderopacity="0.41176471"
     inkscape:pageopacity="0"
     inkscape:pageshadow="2"
     inkscape:zoom="5.5861436"
     inkscape:cx="45.469651"
     inkscape:cy="29.358357"
     inkscape:document-units="mm"
     inkscape:current-layer="layer4"
     showgrid="false"
     units="px"
     inkscape:pagecheckerboard="true"
     inkscape:window-width="1920"
     inkscape:window-height="1002"
     inkscape:window-x="-8"
     inkscape:window-y="-8"
     inkscape:window-maximized="1"
     inkscape:showpageshadow="0"
     inkscape:deskcolor="#8d8d8d"
     showguides="true" /><metadata
     id="metadata5"><rdf:RDF><cc:Work
         rdf:about=""><dc:format>image/svg+xml</dc:format><dc:type
           rdf:resource="http://purl.org/dc/dcmitype/StillImage" /></cc:Work></rdf:RDF></metadata><g
     inkscape:groupmode="layer"
     id="layer5"
     inkscape:label="System default"
     inkscape:highlight-color="#c0c0c0"
     style="display:inline"
     sodipodi:insensitive="true"><g
       id="g33665"
       inkscape:label="system-theme"><rect
         style="display:inline;fill:#00ff3f;fill-opacity:0;stroke:none;stroke-width:0.237722;stroke-linecap:round;stroke-linejoin:bevel;stroke-miterlimit:4;stroke-dasharray:none;stroke-dashoffset:0;stroke-opacity:1;paint-order:normal"
         id="rect38560-7"
         width="13.229167"
         height="13.229167"
         x="0"
         y="0"
         inkscape:label="backplate"
         sodipodi:insensitive="true" /><circle
         style="display:inline;opacity:1;fill:#ffffff;fill-opacity:1;stroke:#ffffff;stroke-width:0.165;stroke-linecap:round;stroke-linejoin:bevel;stroke-miterlimit:4;stroke-dasharray:none;stroke-dashoffset:0;stroke-opacity:1;paint-order:normal"
         id="path38074"
         cx="11.169435"
         cy="9.109704"
         r="1.5908492" /><path
         d="M 10.072259,10.871749 C 9.8889028,10.860902 9.7296236,10.743162 9.6727382,10.57277 9.5298632,10.14441 9.5788111,10.21082 9.2001924,9.9478245 9.0811299,9.8652745 9.0139257,9.7340411 9.0139257,9.5983099 c 0,-0.044979 0.00714,-0.090223 0.02249,-0.1346729 0.1463146,-0.4262438 0.1465791,-0.3439584 0,-0.7725833 -0.015346,-0.043921 -0.02249,-0.089429 -0.02249,-0.1341438 0,-0.1359958 0.067204,-0.2669646 0.1862667,-0.3497792 C 9.5785465,7.9446641 9.5295986,8.0110745 9.6727382,7.5819203 9.7322694,7.4033266 9.9050424,7.2826766 10.10004,7.2826766 h 0.0013 c 0.46699,0.00159 0.383911,0.02884 0.764381,-0.2389188 0.07885,-0.055298 0.171715,-0.082814 0.264848,-0.082814 0.09313,0 0.186002,0.027517 0.264848,0.082814 0.377825,0.2656417 0.296334,0.2405063 0.764381,0.2389188 h 0.0013 c 0.194998,0 0.367771,0.12065 0.427567,0.2992437 0.142875,0.4283604 0.09287,0.36195 0.472546,0.6252104 0.118798,0.08255 0.186002,0.2137834 0.186002,0.3495146 0,0.044715 -0.0069,0.090488 -0.02249,0.1344084 -0.14605,0.4265083 -0.146579,0.3444875 0,0.7725833 0.01561,0.04445 0.02249,0.089958 0.02249,0.1346729 0,0.1357312 -0.0672,0.2669646 -0.186002,0.3495146 -0.379677,0.2635245 -0.329671,0.1971145 -0.472546,0.6249455 -0.05715,0.170127 -0.216165,0.288132 -0.399785,0.298979 v 2.439194 l -1.047221,-0.79375 -1.069446,0.79375 z m 2.570162,-1.7941391 c 0,-0.8347604 -0.676539,-1.5118291 -1.511829,-1.5118291 -0.83476,0 -1.5118288,0.6770687 -1.5118288,1.5118291 0,0.8347604 0.6770688,1.5118291 1.5118288,1.5118291 0.83529,0 1.511829,-0.6770687 1.511829,-1.5118291 z M 11.130592,8.0192766 c -0.583406,0 -1.058333,0.4746625 -1.058333,1.0583333 0,0.5836708 0.474927,1.0583331 1.058333,1.0583331 0.583671,0 1.058334,-0.4746623 1.058334,-1.0583331 0,-0.5836708 -0.474663,-1.0583333 -1.058334,-1.0583333 z"
         id="path37654"
         style="clip-rule:evenodd;display:inline;fill-rule:evenodd;stroke:#ffffff;stroke-width:0.165;stroke-dasharray:none;stroke-opacity:1" /></g></g></svg>
