<?xml version="1.0" encoding="UTF-8" standalone="no"?>
<!-- Created with Inkscape (http://www.inkscape.org/) -->

<svg
   width="50"
   height="50"
   viewBox="0 0 13.229166 13.229167"
   version="1.1"
   id="svg8"
   inkscape:version="1.2 (dc2aedaf03, 2022-05-15)"
   sodipodi:docname="color-scheme.svg"
   xml:space="preserve"
   xmlns:inkscape="http://www.inkscape.org/namespaces/inkscape"
   xmlns:sodipodi="http://sodipodi.sourceforge.net/DTD/sodipodi-0.dtd"
   xmlns="http://www.w3.org/2000/svg"
   xmlns:svg="http://www.w3.org/2000/svg"
   xmlns:rdf="http://www.w3.org/1999/02/22-rdf-syntax-ns#"
   xmlns:cc="http://creativecommons.org/ns#"
   xmlns:dc="http://purl.org/dc/elements/1.1/"><defs
     id="defs2" /><sodipodi:namedview
     id="base"
     pagecolor="#8c8c8c"
     bordercolor="#00ff12"
     borderopacity="0.41176471"
     inkscape:pageopacity="0"
     inkscape:pageshadow="2"
     inkscape:zoom="5.5861436"
     inkscape:cx="45.469651"
     inkscape:cy="29.358357"
     inkscape:document-units="mm"
     inkscape:current-layer="layer4"
     showgrid="false"
     units="px"
     inkscape:pagecheckerboard="true"
     inkscape:window-width="1920"
     inkscape:window-height="1002"
     inkscape:window-x="-8"
     inkscape:window-y="-8"
     inkscape:window-maximized="1"
     inkscape:showpageshadow="0"
     inkscape:deskcolor="#8d8d8d"
     showguides="true" /><metadata
     id="metadata5"><rdf:RDF><cc:Work
         rdf:about=""><dc:format>image/svg+xml</dc:format><dc:type
           rdf:resource="http://purl.org/dc/dcmitype/StillImage" /></cc:Work></rdf:RDF></metadata><g
     inkscape:label="Light theme"
     inkscape:groupmode="layer"
     id="layer1"
     transform="translate(0,-283.77081)"
     style="display:inline"
     inkscape:highlight-color="#ffa500"
     sodipodi:insensitive="true"><rect
       style="display:inline;fill:#00ff3f;fill-opacity:0;stroke:none;stroke-width:0.237722;stroke-linecap:round;stroke-linejoin:bevel;stroke-miterlimit:4;stroke-dasharray:none;stroke-dashoffset:0;stroke-opacity:1;paint-order:normal"
       id="rect38560-3"
       width="13.229167"
       height="13.229167"
       x="0"
       y="283.77081"
       inkscape:label="backplate"
       sodipodi:insensitive="true" /><g
       id="light-theme"
       transform="translate(-0.29868908,-0.10016129)"
       style="opacity:1"><path
         id="path1150"
         style="fill:#ff9900;fill-opacity:1;stroke:#b63200;stroke-width:0.112183;stroke-linecap:butt;stroke-linejoin:miter;stroke-dasharray:none;stroke-opacity:1"
         d="m 6.7944173,284.31187 c -0.8912902,-0.29747 -0.6933045,1.55284 -1.4352621,1.26895 -1.0924545,-0.418 -2.882701,-0.92488 -2.5986101,0.69557 0.1711315,0.97613 -0.3058023,1.39697 -1.1745954,1.58669 -0.86879312,0.18972 -1.01030004,1.15885 -0.3841076,2.00711 0.6261925,0.84826 -0.045783,1.25184 -0.36675095,1.92546 -0.32096765,0.67362 -0.0812096,1.31561 1.13636475,1.43247 1.2175743,0.11686 0.6893557,1.21072 0.8624796,1.9234 0.1731239,0.71268 0.2725822,0.74795 1.7890381,0.39894 1.5164559,-0.34901 1.5336065,0.9591 2.1719605,1.12655 0.638354,0.16745 1.6452078,-1.35462 2.4086385,-1.14513 0.7634307,0.20949 1.6159144,0.31374 1.7890384,-0.39894 0.173124,-0.71268 -0.355095,-1.80706 0.862479,-1.92392 1.217574,-0.11686 1.457333,-0.75833 1.136365,-1.43195 -0.320968,-0.67362 -1.385604,-0.94869 -0.577226,-1.92546 0.808378,-0.97677 0.601581,-2.37888 -0.173632,-2.00712 -0.775213,0.37176 -1.406472,-0.54145 -1.267623,-1.91409 0.138849,-1.37264 -0.06127,-1.12392 -1.763717,-0.61909 -1.7024465,0.50483 -2.0815012,-0.88819 -2.4148397,-0.99944 z"
         sodipodi:nodetypes="ssszzzzzzzzzzzzzzzs" /><circle
         style="opacity:1;fill:#ffd300;fill-opacity:1;stroke:none;stroke-width:0.933063;stroke-linecap:round;stroke-linejoin:round;stroke-miterlimit:4;stroke-dasharray:none;stroke-dashoffset:0;stroke-opacity:1;paint-order:stroke fill markers"
         id="path1334"
         cx="6.9132714"
         cy="290.48679"
         r="4.8106489" /><path
         style="fill:none;stroke:#000000;stroke-width:0.502708;stroke-linecap:round;stroke-linejoin:miter;stroke-dasharray:none;stroke-opacity:1"
         d="m 4.9835704,291.93698 c 0.2981656,0.20651 0.5668979,0.39454 0.9361742,0.54871 0.3692763,0.15417 0.7428512,0.28197 1.2752411,0.23334 0.5323899,-0.0486 1.3001581,-0.499 1.7251283,-0.94956"
         id="path4430"
         sodipodi:nodetypes="czzz" /><path
         style="fill:none;stroke:#000000;stroke-width:0.264583px;stroke-linecap:round;stroke-linejoin:miter;stroke-opacity:1"
         d="m 3.597607,287.52279 c 0.7484809,-0.406 1.6218426,-0.42876 2.2606801,-0.18421"
         id="path4432"
         sodipodi:nodetypes="cc" /><path
         style="fill:none;stroke:#000000;stroke-width:0.264583px;stroke-linecap:round;stroke-linejoin:miter;stroke-opacity:1"
         d="m 8.169205,287.36855 c 0.9345816,-0.52237 1.5497685,-0.33441 2.042985,0"
         id="path4434"
         sodipodi:nodetypes="cc" /><g
         id="g18836"><g
           id="g4529"
           transform="translate(0.03349156)"><path
             id="path3570"
             style="fill:#1f1f1f;fill-opacity:1;stroke:none;stroke-width:1.00013;stroke-linecap:round;stroke-linejoin:round;stroke-dasharray:none;stroke-opacity:1;paint-order:normal"
             d="m 6.5622537,289.36482 c -3.9e-6,0.82311 -0.7617218,1.49037 -1.8252901,1.49037 -1.0635682,0 -1.9257607,-0.66726 -1.9257647,-1.49037 -5.5e-6,-1.13098 -0.1541447,-1.49038 1.9257647,-1.49038 2.0799095,0 1.8252961,0.26433 1.8252901,1.49038 z m 0.6363394,-1.15547"
             sodipodi:nodetypes="ssszs" /><path
             style="fill:#646464;fill-opacity:1;stroke:none;stroke-width:0.264583px;stroke-linecap:butt;stroke-linejoin:miter;stroke-opacity:1"
             d="m 3.9325232,290.6518 c 0,0 0.7213169,0.16219 1.0710877,0.10048 0.3497707,-0.0617 0.5725962,-0.29441 0.9534761,-0.45214 0.3808799,-0.15773 0.6547616,-0.3002 0.6547616,-0.3002 L 6.461136,288.07418 5.1549653,288.8935 Z"
             id="path4531-1"
             sodipodi:nodetypes="czzcccc" /><path
             id="path3570-4"
             style="fill:none;fill-opacity:1;stroke:#000000;stroke-width:0.4445;stroke-linecap:round;stroke-linejoin:round;stroke-dasharray:none;stroke-opacity:1;paint-order:normal"
             d="m 6.5622537,289.36482 c -3.9e-6,0.82311 -0.7617218,1.49037 -1.8252901,1.49037 -1.0635682,0 -1.9257607,-0.66726 -1.9257647,-1.49037 -5.5e-6,-1.13098 -0.1541447,-1.49038 1.9257647,-1.49038 2.0799095,0 1.8252961,0.26433 1.8252901,1.49038 z m 0.6363394,-1.15547"
             sodipodi:nodetypes="ssszs" /></g><g
           id="g4525"
           transform="translate(-0.03349156)"><path
             id="path3570-6"
             style="fill:#1f1f1f;fill-opacity:1;stroke:none;stroke-width:1.00013;stroke-linecap:round;stroke-linejoin:round;stroke-dasharray:none;stroke-opacity:1;paint-order:normal"
             d="m 7.2642916,289.36482 c 3e-6,0.82311 0.7617214,1.49037 1.8252895,1.49037 1.0635679,0 1.9257609,-0.66726 1.9257649,-1.49037 5e-6,-1.13098 0.154144,-1.49038 -1.9257649,-1.49038 -2.0799095,0 -1.8252955,0.26433 -1.8252895,1.49038 z m -0.63634,-1.15547"
             sodipodi:nodetypes="ssszs" /><path
             style="fill:#646464;fill-opacity:1;stroke:none;stroke-width:0.264583px;stroke-linecap:butt;stroke-linejoin:miter;stroke-opacity:1"
             d="m 7.3989,289.64827 0.234441,0.63634 0.4370638,0.31817 1.0191761,0.25241 0.1153787,-1.19017 1.0574694,-1.79058 H 8.5041215 l -1.0663322,0.19974 z"
             id="path4531"
             sodipodi:nodetypes="ccccccccc" /><path
             id="path3570-6-1"
             style="fill:none;fill-opacity:1;stroke:#000000;stroke-width:0.4445;stroke-linecap:round;stroke-linejoin:round;stroke-dasharray:none;stroke-opacity:1;paint-order:normal"
             d="m 7.2642916,289.36482 c 3e-6,0.82311 0.7617214,1.49037 1.8252895,1.49037 1.0635679,0 1.9257609,-0.66726 1.9257649,-1.49037 5e-6,-1.13098 0.154144,-1.49038 -1.9257649,-1.49038 -2.0799095,0 -1.8252955,0.26433 -1.8252895,1.49038 z m -0.63634,-1.15547"
             sodipodi:nodetypes="ssszs" /></g><path
           style="fill:#000000;fill-opacity:1;stroke:#000000;stroke-width:0.265;stroke-linecap:round;stroke-linejoin:round;stroke-dasharray:none;stroke-opacity:1"
           d="m 6.6792961,289.49756 c 0.040313,-0.3653 0.4146593,-0.37005 0.4685518,-0.0247 l 0.084236,-1.01313 c -0.1954442,0.0947 -0.421303,0.1103 -0.695592,0 z"
           id="path9481"
           sodipodi:nodetypes="ccccc" /><path
           style="fill:#000000;fill-opacity:1;stroke:#000000;stroke-width:0.265;stroke-linecap:round;stroke-linejoin:round;stroke-dasharray:none;stroke-opacity:1"
           d="m 2.7734695,288.59556 -0.3019468,0.0296 -0.1480132,0.35344 h 0.4262779 z"
           id="path9533" /><path
           style="display:inline;fill:#000000;fill-opacity:1;stroke:#000000;stroke-width:0.265;stroke-linecap:round;stroke-linejoin:round;stroke-dasharray:none;stroke-opacity:1"
           d="m 10.974365,288.59556 0.301947,0.0296 0.148013,0.35344 h -0.426278 z"
           id="path9533-6" /></g></g></g></svg>
