<?xml version="1.0" encoding="UTF-8"?>
<!-- Created with Inkscape (http://www.inkscape.org/) -->
<svg version="1.1" viewBox="0 0 13.229 13.229" xml:space="preserve" xmlns="http://www.w3.org/2000/svg" xmlns:cc="http://creativecommons.org/ns#" xmlns:dc="http://purl.org/dc/elements/1.1/" xmlns:rdf="http://www.w3.org/1999/02/22-rdf-syntax-ns#"><defs><filter id="filter34967" x="-.042677" y="-.042677" width="1.0854" height="1.0854" color-interpolation-filters="sRGB"><feGaussianBlur stdDeviation="0.20614227"/></filter><filter id="filter34967-9" x="-.016322" y="-.016322" width="1.0326" height="1.0326" color-interpolation-filters="sRGB"><feGaussianBlur stdDeviation="0.078837997"/></filter></defs><metadata><rdf:RDF><cc:Work rdf:about=""><dc:format>image/svg+xml</dc:format><dc:type rdf:resource="http://purl.org/dc/dcmitype/StillImage"/></cc:Work></rdf:RDF></metadata><g><rect width="13.229" height="13.229" fill-opacity="0" style="paint-order:normal"/><circle transform="matrix(.96859 0 0 .96859 .20778 .20781)" cx="6.6146" cy="6.6158" r="5.7963" fill-opacity=".14171" filter="url(#filter34967)" style="mix-blend-mode:normal;paint-order:stroke fill markers"/><circle transform="matrix(1.1017 0 0 1.1017 -.6727 -.67283)" cx="6.6146" cy="6.6158" r="5.7963" fill-opacity=".14171" filter="url(#filter34967-9)" style="mix-blend-mode:normal;paint-order:stroke fill markers"/><g><circle cx="6.6146" cy="6.6158" r="4.8106" fill="#846e5a" style="paint-order:stroke fill markers"/><path d="m9.8449 7.6264a1.7114 1.7114 0 0 0-1.7115 1.7115 1.7114 1.7114 0 0 0 0.83664 1.4702 4.8106 4.8106 0 0 0 2.1745-2.5833 1.7114 1.7114 0 0 0-1.2997-0.59841z" fill="#685650" style="paint-order:stroke fill markers"/><path d="m6.6146 1.8051a4.8106 4.8106 0 0 0-4.8106 4.8106 4.8106 4.8106 0 0 0 4.8106 4.8111 4.8106 4.8106 0 0 0 1.6257-0.2868 6.6192 6.6192 0 0 0 1.5456-4.2447 6.6192 6.6192 0 0 0-2.2929-5.009 4.8106 4.8106 0 0 0-0.8785-0.081132z" fill="#69008a" style="paint-order:stroke fill markers"/><circle cx="9.0907" cy="4.9951" r="1.033" fill="#685650" style="paint-order:stroke fill markers"/></g><g fill="#321b41"><circle cx="6.2958" cy="8.3474" r="1.033" style="paint-order:stroke fill markers"/><circle cx="3.8435" cy="5.7156" r="1.2698" style="paint-order:stroke fill markers"/><path d="m3.6675 8.8661a1.2698 1.2698 0 0 0-1.0025 0.49093 4.8106 4.8106 0 0 0 1.9436 1.6309 1.2698 1.2698 0 0 0 0.32866-0.85214 1.2698 1.2698 0 0 0-1.2697-1.2697z" style="paint-order:stroke fill markers"/><circle cx="6.2038" cy="3.6882" r=".51196" style="paint-order:stroke fill markers"/><path d="m9.0909 3.962a1.033 1.033 0 0 0-1.033 1.033 1.033 1.033 0 0 0 1.033 1.033 1.033 1.033 0 0 0 0.60823-0.19895 1.033 1.033 0 0 1-1.0227-1.0325 1.033 1.033 0 0 1 0.4253-0.83457 1.033 1.033 0 0 0-0.010852 0z" style="paint-order:stroke fill markers"/><path d="m9.7431 7.63a1.7114 1.7114 0 0 0-1.6097 1.7079 1.7114 1.7114 0 0 0 0.5302 1.2366 6.6192 6.6192 0 0 0 1.0795-2.9445z" style="paint-order:stroke fill markers"/></g><g fill="#fff"><circle cx="2.3564" cy="2.9958" r=".24866" style="paint-order:normal"/><circle cx="4.4996" cy="1.7525" r=".24866" style="paint-order:normal"/><circle cx="10.657" cy="2.9366" r=".24866" style="paint-order:normal"/><circle cx="12.149" cy="6.9625" r=".24866" style="paint-order:normal"/><circle cx="9.4965" cy="11.32" r=".24866" style="paint-order:normal"/><circle cx="3.7891" cy="11.557" r=".24866" style="paint-order:normal"/><circle cx="6.8915" cy="12.244" r=".082887" style="paint-order:normal"/><circle cx="8.5256" cy="11.699" r=".082887" style="paint-order:normal"/><circle cx="11.699" cy="9.4728" r=".082887" style="paint-order:normal"/><circle cx="1.2552" cy="6.7494" r=".082887" style="paint-order:normal"/><circle cx="7.6493" cy="1.0894" r=".082887" style="paint-order:normal"/><circle cx="9.5676" cy="2.084" r=".082887" style="paint-order:normal"/><circle cx="1.7051" cy="4.7601" r=".082887" style="paint-order:normal"/><circle cx="1.9419" cy="9.165" r=".24866" style="paint-order:normal"/></g><g transform="translate(.13077)"><path d="m7.4551 5.1326c-0.00198-0.89552 1.8372-0.75652 1.8372 0.020931 1e-7 0.77745-0.33232 0.49819-0.33232 0.49819l-0.655 0.10466-0.43958-0.15026s-0.40829 0.422-0.41027-0.47352z" fill="#7b4a8a"/><path d="m5.5435 5.1326c0.00198-0.89552-1.8372-0.75652-1.8372 0.020931-1e-7 0.77745 0.33232 0.49819 0.33232 0.49819l0.655 0.10466 0.43958-0.15026s0.40829 0.422 0.41027-0.47352z" fill="#7b4a8a"/><g transform="translate(0 -.082887)" fill="none" stroke="#fff" stroke-linecap="round"><path d="m9.2302 5.169c-0.20018 1.0139-1.6678 0.7784-1.7751-0.016746" stroke-linejoin="round" stroke-width=".565"/><g stroke-width=".26458px"><path d="m7.7031 5.6044-0.32654 0.54005"/><path d="m8.3059 5.7384-0.062797 0.69076"/><path d="m8.892 5.6547 0.26793 0.55261"/></g></g><g transform="translate(0 .18946)" fill="none" stroke="#fff" stroke-linecap="round"><path d="m9.2302 5.169c-0.20018 1.0139-1.6678 0.7784-1.7751-0.016746" stroke-linejoin="round" stroke-width=".565"/><g stroke-width=".26458px"><path d="m7.7031 5.6044-0.32654 0.54005"/><path d="m8.3059 5.7384-0.062797 0.69076"/><path d="m8.892 5.6547 0.26793 0.55261"/></g></g><g fill="none" stroke="#000" stroke-linecap="round"><path d="m9.2302 5.169c-0.20018 1.0139-1.6678 0.7784-1.7751-0.016746" stroke-linejoin="round" stroke-width=".565"/><g stroke-width=".26458px"><path d="m7.7031 5.6044-0.32654 0.54005"/><path d="m8.3059 5.7384-0.062797 0.69076"/><path d="m8.892 5.6547 0.26793 0.55261"/></g></g><g transform="matrix(-1 0 0 1 12.934 .13381)" fill="none" stroke="#fff" stroke-linecap="round"><path d="m9.1967 5.2247c-0.20018 1.0139-1.6678 0.7784-1.7751-0.016746" stroke-linejoin="round" stroke-width=".565"/><g stroke-width=".26458px"><path d="m7.6696 5.6601-0.32654 0.54005"/><path d="m8.2724 5.794-0.062797 0.69076"/><path d="m8.8585 5.7103 0.26793 0.55261"/></g></g><g transform="matrix(-1 0 0 1 12.934 -.13854)" fill="none" stroke="#fff" stroke-linecap="round"><path d="m9.1967 5.2247c-0.20018 1.0139-1.6678 0.7784-1.7751-0.016746" stroke-linejoin="round" stroke-width=".565"/><g stroke-width=".26458px"><path d="m7.6696 5.6601-0.32654 0.54005"/><path d="m8.2724 5.794-0.062797 0.69076"/><path d="m8.8585 5.7103 0.26793 0.55261"/></g></g><g transform="matrix(-1 0 0 1 12.934 -.055649)" fill="none" stroke="#000" stroke-linecap="round"><path d="m9.1967 5.2247c-0.20018 1.0139-1.6678 0.7784-1.7751-0.016746" stroke-linejoin="round" stroke-width=".565"/><g stroke-width=".26458px"><path d="m7.6696 5.6601-0.32654 0.54005"/><path d="m8.2724 5.794-0.062797 0.69076"/><path d="m8.8585 5.7103 0.26793 0.55261"/></g></g></g><g fill="none" stroke="#fff" stroke-linejoin="bevel" stroke-width=".80883"><path d="m6.0647 9.3019 0.94104-0.03495-0.94104 0.59205 0.94104 0.023683"/><path d="m5.1393 9.1074 0.94104-0.03495-0.94104 0.59205 0.94104 0.023683"/><path d="m3.7933 8.5122 1.3672-0.050777-1.3672 0.86016 1.3672 0.034408"/></g><g fill="none" stroke="#000" stroke-linejoin="bevel"><path d="m6.0647 9.3019 0.94104-0.03495-0.94104 0.59205 0.94104 0.023683" stroke-width=".26458px"/><path d="m5.1393 9.1074 0.94104-0.03495-0.94104 0.59205 0.94104 0.023683" stroke-width=".26458px"/><path d="m3.7933 8.5122 1.3672-0.050777-1.3672 0.86016 1.3672 0.034408" stroke-width=".3844px"/></g></g></svg>
