<?xml version="1.0" encoding="UTF-8"?>
<!-- Created with Inkscape (http://www.inkscape.org/) -->
<svg version="1.1" viewBox="0 0 13.229 13.229" xml:space="preserve" xmlns="http://www.w3.org/2000/svg" xmlns:cc="http://creativecommons.org/ns#" xmlns:dc="http://purl.org/dc/elements/1.1/" xmlns:rdf="http://www.w3.org/1999/02/22-rdf-syntax-ns#"><metadata><rdf:RDF><cc:Work rdf:about=""><dc:format>image/svg+xml</dc:format><dc:type rdf:resource="http://purl.org/dc/dcmitype/StillImage"/></cc:Work></rdf:RDF></metadata><g transform="translate(0 -283.77)"><rect y="283.77" width="13.229" height="13.229" fill-opacity="0" style="paint-order:normal"/><g id="light-theme" transform="translate(-.29869 -.10016)"><path d="m6.7944 284.31c-0.89129-0.29747-0.6933 1.5528-1.4353 1.269-1.0925-0.418-2.8827-0.92488-2.5986 0.69557 0.17113 0.97613-0.3058 1.397-1.1746 1.5867-0.86879 0.18972-1.0103 1.1588-0.38411 2.0071 0.62619 0.84826-0.045783 1.2518-0.36675 1.9255-0.32097 0.67362-0.08121 1.3156 1.1364 1.4325 1.2176 0.11686 0.68936 1.2107 0.86248 1.9234s0.27258 0.74795 1.789 0.39894 1.5336 0.9591 2.172 1.1266 1.6452-1.3546 2.4086-1.1451 1.6159 0.31374 1.789-0.39894-0.3551-1.8071 0.86248-1.9239 1.4573-0.75833 1.1364-1.432-1.3856-0.94869-0.57723-1.9255 0.60158-2.3789-0.17363-2.0071-1.4065-0.54145-1.2676-1.9141-0.06127-1.1239-1.7637-0.61909c-1.7024 0.50483-2.0815-0.88819-2.4148-0.99944z" fill="#f90" stroke="#b63200" stroke-width=".11218"/><circle cx="6.9133" cy="290.49" r="4.8106" fill="#ffd300" style="paint-order:stroke fill markers"/><g fill="none" stroke="#000" stroke-linecap="round"><path d="m4.9836 291.94c0.29817 0.20651 0.5669 0.39454 0.93617 0.54871s0.74285 0.28197 1.2752 0.23334c0.53239-0.0486 1.3002-0.499 1.7251-0.94956" stroke-width=".50271"/><path d="m3.5976 287.52c0.74848-0.406 1.6218-0.42876 2.2607-0.18421" stroke-width=".26458px"/><path d="m8.1692 287.37c0.93458-0.52237 1.5498-0.33441 2.043 0" stroke-width=".26458px"/></g><g transform="translate(.033492)"><path d="m6.5623 289.36c-3.9e-6 0.82311-0.76172 1.4904-1.8253 1.4904-1.0636 0-1.9258-0.66726-1.9258-1.4904-5.5e-6 -1.131-0.15414-1.4904 1.9258-1.4904 2.0799 0 1.8253 0.26433 1.8253 1.4904z" fill="#1f1f1f" style="paint-order:normal"/><path d="m3.9325 290.65s0.72132 0.16219 1.0711 0.10048c0.34977-0.0617 0.5726-0.29441 0.95348-0.45214s0.65476-0.3002 0.65476-0.3002l-0.15071-1.9258-1.3062 0.81932z" fill="#646464"/><path d="m6.5623 289.36c-3.9e-6 0.82311-0.76172 1.4904-1.8253 1.4904-1.0636 0-1.9258-0.66726-1.9258-1.4904-5.5e-6 -1.131-0.15414-1.4904 1.9258-1.4904 2.0799 0 1.8253 0.26433 1.8253 1.4904zm0.63634-1.1555" fill="none" stroke="#000" stroke-linecap="round" stroke-linejoin="round" stroke-width=".4445" style="paint-order:normal"/></g><g transform="translate(-.033492)"><path d="m7.2643 289.36c3e-6 0.82311 0.76172 1.4904 1.8253 1.4904 1.0636 0 1.9258-0.66726 1.9258-1.4904 5e-6 -1.131 0.15414-1.4904-1.9258-1.4904-2.0799 0-1.8253 0.26433-1.8253 1.4904z" fill="#1f1f1f" style="paint-order:normal"/><path d="m7.3989 289.65 0.23444 0.63634 0.43706 0.31817 1.0192 0.25241 0.11538-1.1902 1.0575-1.7906h-1.7583l-1.0663 0.19974z" fill="#646464"/><path d="m7.2643 289.36c3e-6 0.82311 0.76172 1.4904 1.8253 1.4904 1.0636 0 1.9258-0.66726 1.9258-1.4904 5e-6 -1.131 0.15414-1.4904-1.9258-1.4904-2.0799 0-1.8253 0.26433-1.8253 1.4904zm-0.63634-1.1555" fill="none" stroke="#000" stroke-linecap="round" stroke-linejoin="round" stroke-width=".4445" style="paint-order:normal"/></g><g stroke="#000" stroke-linecap="round" stroke-linejoin="round" stroke-width=".265"><path d="m6.6793 289.5c0.040313-0.3653 0.41466-0.37005 0.46855-0.0247l0.084236-1.0131c-0.19544 0.0947-0.4213 0.1103-0.69559 0z"/><path d="m2.7735 288.6-0.30195 0.0296-0.14801 0.35344h0.42628z"/><path d="m10.974 288.6 0.30195 0.0296 0.14801 0.35344h-0.42628z"/></g></g></g></svg>
