<?xml version="1.0" encoding="UTF-8"?>
<!-- Created with Inkscape (http://www.inkscape.org/) -->
<svg version="1.1" viewBox="0 0 13.33 13.477" xml:space="preserve" xmlns="http://www.w3.org/2000/svg" xmlns:cc="http://creativecommons.org/ns#" xmlns:dc="http://purl.org/dc/elements/1.1/" xmlns:rdf="http://www.w3.org/1999/02/22-rdf-syntax-ns#"><metadata><rdf:RDF><cc:Work rdf:about=""><dc:format>image/svg+xml</dc:format><dc:type rdf:resource="http://purl.org/dc/dcmitype/StillImage"/></cc:Work></rdf:RDF></metadata><g><rect width="13.229" height="13.229" fill-opacity="0" style="paint-order:normal"/><circle cx="11.169" cy="9.1097" r="1.5908" fill="#fff" stroke="#fff" stroke-linecap="round" stroke-linejoin="bevel" stroke-width=".165" style="paint-order:normal"/><path d="m10.072 10.872c-0.18336-0.010847-0.34264-0.12859-0.39952-0.29898-0.14288-0.42836-0.093927-0.36195-0.47255-0.62495-0.11906-0.08255-0.18627-0.21378-0.18627-0.34951 0-0.044979 0.00714-0.090223 0.02249-0.13467 0.14631-0.42624 0.14658-0.34396 0-0.77258-0.015346-0.043921-0.02249-0.089429-0.02249-0.13414 0-0.136 0.067204-0.26696 0.18627-0.34978 0.37835-0.26247 0.32941-0.19606 0.47255-0.62521 0.059531-0.17859 0.2323-0.29924 0.4273-0.29924h0.0013c0.46699 0.00159 0.38391 0.02884 0.76438-0.23892 0.07885-0.055298 0.17172-0.082814 0.26485-0.082814 0.09313 0 0.186 0.027517 0.26485 0.082814 0.37782 0.26564 0.29633 0.24051 0.76438 0.23892h0.0013c0.195 0 0.36777 0.12065 0.42757 0.29924 0.14288 0.42836 0.09287 0.36195 0.47255 0.62521 0.1188 0.08255 0.186 0.21378 0.186 0.34951 0 0.044715-0.0069 0.090488-0.02249 0.13441-0.14605 0.42651-0.14658 0.34449 0 0.77258 0.01561 0.04445 0.02249 0.089958 0.02249 0.13467 0 0.13573-0.0672 0.26696-0.186 0.34951-0.37968 0.26352-0.32967 0.19711-0.47255 0.62495-0.05715 0.17013-0.21616 0.28813-0.39978 0.29898v2.4392l-1.0472-0.79375-1.0694 0.79375zm2.5702-1.7941c0-0.83476-0.67654-1.5118-1.5118-1.5118-0.83476 0-1.5118 0.67707-1.5118 1.5118s0.67707 1.5118 1.5118 1.5118c0.83529 0 1.5118-0.67707 1.5118-1.5118zm-1.5118-1.0583c-0.58341 0-1.0583 0.47466-1.0583 1.0583s0.47493 1.0583 1.0583 1.0583c0.58367 0 1.0583-0.47466 1.0583-1.0583s-0.47466-1.0583-1.0583-1.0583z" clip-rule="evenodd" fill-rule="evenodd" stroke="#fff" stroke-width=".165"/></g></svg>
